<mxfile host="app.diagrams.net" modified="2021-08-02T02:50:52.302Z" agent="5.0 (Macintosh; Intel Mac OS X 10_15_7) AppleWebKit/605.1.15 (KHTML, like Gecko) Version/14.1.2 Safari/605.1.15" etag="cEKv1Cuvd0SBqPErukCy" version="14.9.3" type="github">
  <diagram id="kS75LC0HYHwZPWsxQ0Zi" name="Page-1">
    <mxGraphModel dx="1112" dy="513" grid="1" gridSize="10" guides="1" tooltips="1" connect="1" arrows="1" fold="1" page="1" pageScale="1" pageWidth="827" pageHeight="1169" math="0" shadow="0">
      <root>
        <mxCell id="0" />
        <mxCell id="1" parent="0" />
        <mxCell id="0HlqgILHjbmQll7jfw30-7" value="" style="ellipse;shape=cloud;whiteSpace=wrap;html=1;strokeColor=#3399FF;" vertex="1" parent="1">
          <mxGeometry x="630" y="185.63" width="190" height="110" as="geometry" />
        </mxCell>
        <mxCell id="0HlqgILHjbmQll7jfw30-2" value="" style="rounded=1;whiteSpace=wrap;html=1;" vertex="1" parent="1">
          <mxGeometry x="110" y="200" width="360" height="110" as="geometry" />
        </mxCell>
        <mxCell id="D1UB6xD3hrkQLUXSYkU2-18" value="" style="rounded=1;whiteSpace=wrap;html=1;" parent="1" vertex="1">
          <mxGeometry x="90" y="550" width="720" height="150" as="geometry" />
        </mxCell>
        <mxCell id="D1UB6xD3hrkQLUXSYkU2-2" value="" style="image;html=1;image=img/lib/clip_art/networking/Cloud_Server_128x128.png" parent="1" vertex="1">
          <mxGeometry x="400" width="210" height="90" as="geometry" />
        </mxCell>
        <mxCell id="D1UB6xD3hrkQLUXSYkU2-3" value="" style="image;html=1;image=img/lib/clip_art/computers/Database_128x128.png" parent="1" vertex="1">
          <mxGeometry x="120" y="220" width="50" height="75" as="geometry" />
        </mxCell>
        <mxCell id="D1UB6xD3hrkQLUXSYkU2-4" value="" style="image;html=1;image=img/lib/clip_art/computers/Server_Tower_128x128.png" parent="1" vertex="1">
          <mxGeometry x="280" y="230" width="60" height="58.75" as="geometry" />
        </mxCell>
        <mxCell id="D1UB6xD3hrkQLUXSYkU2-5" value="" style="image;html=1;image=img/lib/clip_art/computers/Server_128x128.png" parent="1" vertex="1">
          <mxGeometry x="230" y="240" width="60" height="46.25" as="geometry" />
        </mxCell>
        <mxCell id="D1UB6xD3hrkQLUXSYkU2-6" value="" style="shape=image;html=1;verticalAlign=top;verticalLabelPosition=bottom;labelBackgroundColor=#ffffff;imageAspect=0;aspect=fixed;image=https://cdn1.iconfinder.com/data/icons/DarkGlass_Reworked/128x128/apps/redhat-system_tools.png" parent="1" vertex="1">
          <mxGeometry x="400" y="230.63" width="65" height="65" as="geometry" />
        </mxCell>
        <mxCell id="D1UB6xD3hrkQLUXSYkU2-8" value="" style="aspect=fixed;perimeter=ellipsePerimeter;html=1;align=center;shadow=0;dashed=0;spacingTop=3;image;image=img/lib/active_directory/internet_cloud.svg;" parent="1" vertex="1">
          <mxGeometry x="400" y="360" width="95.24" height="60" as="geometry" />
        </mxCell>
        <mxCell id="D1UB6xD3hrkQLUXSYkU2-10" value="" style="endArrow=none;html=1;" parent="1" edge="1">
          <mxGeometry width="50" height="50" relative="1" as="geometry">
            <mxPoint x="108" y="330" as="sourcePoint" />
            <mxPoint x="778" y="330" as="targetPoint" />
          </mxGeometry>
        </mxCell>
        <mxCell id="D1UB6xD3hrkQLUXSYkU2-11" value="" style="shape=flexArrow;endArrow=classic;html=1;" parent="1" edge="1">
          <mxGeometry width="50" height="50" relative="1" as="geometry">
            <mxPoint x="440" y="330" as="sourcePoint" />
            <mxPoint x="440" y="360" as="targetPoint" />
          </mxGeometry>
        </mxCell>
        <mxCell id="D1UB6xD3hrkQLUXSYkU2-12" value="" style="aspect=fixed;html=1;points=[];align=center;image;fontSize=12;image=img/lib/mscae/Client_Apps.svg;" parent="1" vertex="1">
          <mxGeometry x="425" y="460" width="50" height="50" as="geometry" />
        </mxCell>
        <mxCell id="D1UB6xD3hrkQLUXSYkU2-13" value="" style="verticalLabelPosition=bottom;html=1;fillColor=#A153A0;strokeColor=#ffffff;verticalAlign=top;align=center;points=[[0,0.5,0],[0.125,0.25,0],[0.25,0,0],[0.5,0,0],[0.75,0,0],[0.875,0.25,0],[1,0.5,0],[0.875,0.75,0],[0.75,1,0],[0.5,1,0],[0.125,0.75,0]];pointerEvents=1;shape=mxgraph.cisco_safe.compositeIcon;bgIcon=ellipse;resIcon=mxgraph.cisco_safe.design.users;" parent="1" vertex="1">
          <mxGeometry x="110" y="585" width="60" height="60" as="geometry" />
        </mxCell>
        <mxCell id="D1UB6xD3hrkQLUXSYkU2-14" value="" style="image;html=1;image=img/lib/clip_art/computers/Laptop_128x128.png" parent="1" vertex="1">
          <mxGeometry x="280" y="582.5" width="80" height="80" as="geometry" />
        </mxCell>
        <mxCell id="D1UB6xD3hrkQLUXSYkU2-15" value="" style="image;html=1;image=img/lib/clip_art/computers/Monitor_Tower_128x128.png" parent="1" vertex="1">
          <mxGeometry x="450" y="582.5" width="80" height="80" as="geometry" />
        </mxCell>
        <mxCell id="D1UB6xD3hrkQLUXSYkU2-16" value="" style="verticalLabelPosition=bottom;html=1;verticalAlign=top;align=center;strokeColor=none;fillColor=#00BEF2;shape=mxgraph.azure.mobile;pointerEvents=1;" parent="1" vertex="1">
          <mxGeometry x="610" y="595" width="40" height="55" as="geometry" />
        </mxCell>
        <mxCell id="D1UB6xD3hrkQLUXSYkU2-17" value="" style="image;html=1;image=img/lib/clip_art/computers/Printer_Commercial_128x128.png" parent="1" vertex="1">
          <mxGeometry x="720" y="576.25" width="90" height="92.5" as="geometry" />
        </mxCell>
        <mxCell id="D1UB6xD3hrkQLUXSYkU2-19" value="&lt;b&gt;USERS&lt;/b&gt;" style="text;html=1;strokeColor=none;fillColor=none;align=center;verticalAlign=middle;whiteSpace=wrap;rounded=0;" parent="1" vertex="1">
          <mxGeometry x="370" y="680" width="150" height="20" as="geometry" />
        </mxCell>
        <mxCell id="D1UB6xD3hrkQLUXSYkU2-20" value="" style="shape=flexArrow;endArrow=classic;html=1;" parent="1" edge="1">
          <mxGeometry width="50" height="50" relative="1" as="geometry">
            <mxPoint x="447.12" y="420" as="sourcePoint" />
            <mxPoint x="447.12" y="450" as="targetPoint" />
          </mxGeometry>
        </mxCell>
        <mxCell id="D1UB6xD3hrkQLUXSYkU2-22" value="" style="shape=flexArrow;endArrow=classic;html=1;" parent="1" edge="1">
          <mxGeometry width="50" height="50" relative="1" as="geometry">
            <mxPoint x="449.9999999999999" y="510" as="sourcePoint" />
            <mxPoint x="449.9999999999999" y="540" as="targetPoint" />
          </mxGeometry>
        </mxCell>
        <mxCell id="D1UB6xD3hrkQLUXSYkU2-23" value="Internet&lt;br&gt;&lt;br&gt;" style="text;html=1;strokeColor=none;fillColor=none;align=center;verticalAlign=middle;whiteSpace=wrap;rounded=0;" parent="1" vertex="1">
          <mxGeometry x="425" y="380" width="40" height="20" as="geometry" />
        </mxCell>
        <mxCell id="D1UB6xD3hrkQLUXSYkU2-24" value="Web Application&lt;br&gt;" style="text;html=1;strokeColor=none;fillColor=none;align=center;verticalAlign=middle;whiteSpace=wrap;rounded=0;" parent="1" vertex="1">
          <mxGeometry x="475" y="475" width="105" height="20" as="geometry" />
        </mxCell>
        <mxCell id="D1UB6xD3hrkQLUXSYkU2-26" value="Database" style="text;html=1;strokeColor=none;fillColor=none;align=center;verticalAlign=middle;whiteSpace=wrap;rounded=0;" parent="1" vertex="1">
          <mxGeometry x="140" y="286.25" width="40" height="20" as="geometry" />
        </mxCell>
        <mxCell id="D1UB6xD3hrkQLUXSYkU2-27" value="Servers&lt;br&gt;" style="text;html=1;strokeColor=none;fillColor=none;align=center;verticalAlign=middle;whiteSpace=wrap;rounded=0;" parent="1" vertex="1">
          <mxGeometry x="260" y="290" width="40" height="20" as="geometry" />
        </mxCell>
        <mxCell id="D1UB6xD3hrkQLUXSYkU2-28" value="Hardwares&lt;br&gt;" style="text;html=1;strokeColor=none;fillColor=none;align=center;verticalAlign=middle;whiteSpace=wrap;rounded=0;" parent="1" vertex="1">
          <mxGeometry x="414" y="290" width="40" height="20" as="geometry" />
        </mxCell>
        <mxCell id="D1UB6xD3hrkQLUXSYkU2-31" value="" style="endArrow=none;html=1;" parent="1" edge="1">
          <mxGeometry width="50" height="50" relative="1" as="geometry">
            <mxPoint x="280" y="140" as="sourcePoint" />
            <mxPoint x="690" y="140" as="targetPoint" />
            <Array as="points">
              <mxPoint x="560" y="140" />
            </Array>
          </mxGeometry>
        </mxCell>
        <mxCell id="D1UB6xD3hrkQLUXSYkU2-32" value="" style="shape=flexArrow;endArrow=classic;html=1;" parent="1" edge="1">
          <mxGeometry width="50" height="50" relative="1" as="geometry">
            <mxPoint x="520" y="100" as="sourcePoint" />
            <mxPoint x="520" y="130" as="targetPoint" />
          </mxGeometry>
        </mxCell>
        <mxCell id="D1UB6xD3hrkQLUXSYkU2-33" value="" style="shape=flexArrow;endArrow=classic;html=1;" parent="1" edge="1">
          <mxGeometry width="50" height="50" relative="1" as="geometry">
            <mxPoint x="280" y="140" as="sourcePoint" />
            <mxPoint x="280" y="190" as="targetPoint" />
          </mxGeometry>
        </mxCell>
        <mxCell id="D1UB6xD3hrkQLUXSYkU2-34" value="" style="shape=flexArrow;endArrow=classic;html=1;" parent="1" edge="1">
          <mxGeometry width="50" height="50" relative="1" as="geometry">
            <mxPoint x="690" y="140" as="sourcePoint" />
            <mxPoint x="690" y="190" as="targetPoint" />
          </mxGeometry>
        </mxCell>
        <mxCell id="D1UB6xD3hrkQLUXSYkU2-40" value="&lt;b&gt;Hybrid Cloud&lt;/b&gt;" style="text;html=1;strokeColor=none;fillColor=none;align=center;verticalAlign=middle;whiteSpace=wrap;rounded=0;" parent="1" vertex="1">
          <mxGeometry x="520" y="60" width="70" height="55" as="geometry" />
        </mxCell>
        <mxCell id="0HlqgILHjbmQll7jfw30-3" value="SkyTech&amp;nbsp;&lt;br&gt;On-premise Server&lt;br&gt;" style="text;html=1;strokeColor=none;fillColor=none;align=center;verticalAlign=middle;whiteSpace=wrap;rounded=0;" vertex="1" parent="1">
          <mxGeometry x="150" y="170" width="140" height="20" as="geometry" />
        </mxCell>
        <mxCell id="0HlqgILHjbmQll7jfw30-6" value="" style="image;html=1;image=img/lib/clip_art/computers/Server_Rack_128x128.png" vertex="1" parent="1">
          <mxGeometry x="740" y="224.42" width="50" height="45.42" as="geometry" />
        </mxCell>
        <mxCell id="0HlqgILHjbmQll7jfw30-9" value="" style="image;html=1;image=img/lib/clip_art/computers/Database_128x128.png" vertex="1" parent="1">
          <mxGeometry x="680" y="220" width="40" height="54.27" as="geometry" />
        </mxCell>
        <mxCell id="0HlqgILHjbmQll7jfw30-11" value="Public Database and Server&lt;br&gt;" style="text;html=1;strokeColor=none;fillColor=none;align=center;verticalAlign=middle;whiteSpace=wrap;rounded=0;" vertex="1" parent="1">
          <mxGeometry x="690" y="286.25" width="90" height="44.37" as="geometry" />
        </mxCell>
        <mxCell id="0HlqgILHjbmQll7jfw30-14" value="Google Cloud&lt;br&gt;" style="text;html=1;strokeColor=none;fillColor=none;align=center;verticalAlign=middle;whiteSpace=wrap;rounded=0;" vertex="1" parent="1">
          <mxGeometry x="720" y="180" width="110" height="20" as="geometry" />
        </mxCell>
        <mxCell id="0HlqgILHjbmQll7jfw30-15" value="" style="shape=image;html=1;verticalAlign=top;verticalLabelPosition=bottom;labelBackgroundColor=#ffffff;imageAspect=0;aspect=fixed;image=https://cdn1.iconfinder.com/data/icons/logos-brands-in-colors/544/Google__G__Logo-128.png;strokeColor=#3399FF;" vertex="1" parent="1">
          <mxGeometry x="720" y="230.63" width="30.63" height="30.63" as="geometry" />
        </mxCell>
        <mxCell id="0HlqgILHjbmQll7jfw30-16" value="" style="curved=1;endArrow=classic;html=1;" edge="1" parent="1">
          <mxGeometry width="50" height="50" relative="1" as="geometry">
            <mxPoint x="475" y="265.63" as="sourcePoint" />
            <mxPoint x="630" y="230" as="targetPoint" />
            <Array as="points">
              <mxPoint x="525" y="265.63" />
              <mxPoint x="475" y="215.63" />
            </Array>
          </mxGeometry>
        </mxCell>
        <mxCell id="0HlqgILHjbmQll7jfw30-18" value="Easy Scaling&lt;br&gt;" style="text;html=1;strokeColor=none;fillColor=none;align=center;verticalAlign=middle;whiteSpace=wrap;rounded=0;" vertex="1" parent="1">
          <mxGeometry x="580" y="230.63" width="40" height="20" as="geometry" />
        </mxCell>
      </root>
    </mxGraphModel>
  </diagram>
</mxfile>
